# xmcd
# 
# Track frame offsets:
#     150
#     25500
#     60769
#     87050
#     110498
#     132704
#     138914
#     170676
#     201942
#     232425
#     254441
#     282051
# 
# Disc length: 4036
# 
# Revision: 2
# Processed by: cddbd v1.5.2PL0 Copyright (c) Steve Scherf et al.
# Submitted via: fre:ac v1.1beta1pre4
# 
DISCID=a90fc20c
DTITLE=Paris Jazz Big Band - Paris 24H
DYEAR=2004
DGENRE=Jazz
TTITLE0=Le cyclopathe
TTITLE1=Place pigalle
TTITLE2=Musée d'orsay
TTITLE3=Galeries
TTITLE4=Rendez-vous
TTITLE5=Metropolitain
TTITLE6=Tuileries
TTITLE7=La pluie
TTITLE8=Metataxi
TTITLE9=Bateaux-mouches
TTITLE10=Sous les toits
TTITLE11=Rêve
EXTD=YEAR: 2004
EXTT0=
EXTT1=
EXTT2=
EXTT3=
EXTT4=
EXTT5=
EXTT6=
EXTT7=
EXTT8=
EXTT9=
EXTT10=
EXTT11=
PLAYORDER=
